<svg xmlns="http://www.w3.org/2000/svg" viewBox="0 0 356.08 295.9"><defs><style>.a{fill:#d99736;}</style></defs><title>logo</title><path class="a" d="M100.34,206.51c0,10.06,4.33,18.21,9.67,18.21s9.69-8.15,9.69-18.21-4.33-18.22-9.69-18.22S100.34,196.46,100.34,206.51Z" transform="translate(-100.34 -123.07)"/><path class="a" d="M100.34,332c0,10,4.33,18.22,9.67,18.22s9.69-8.18,9.69-18.22-4.33-18.22-9.69-18.22S100.34,322,100.34,332Z" transform="translate(-100.34 -123.07)"/><ellipse class="a" cx="64.59" cy="141.67" rx="11.37" ry="21.4"/><path class="a" d="M436.58,159.49L282.42,123.07c-7,0-12.75,6-12.75,13.5v266c0,0.06,0,5.77-3.68,9.49s-9.06,4.15-9.06,4.15,6.37,3.58,12.74,2.56c10.74-1.76,30.07-6.65,30.07-6.65l-0.26-.07L435,380c14.32-3.25,21.39-11.14,21.39-24.13V180.61C456.41,168.25,450.89,162.67,436.58,159.49Zm-111,221.59c-7.38,0-13.38-11.28-13.38-25.16s6-25.15,13.38-25.15,13.37,11.27,13.37,25.15S332.92,381.08,325.54,381.08Zm0-173.31c-7.38,0-13.38-11.26-13.38-25.15s6-25.16,13.38-25.16,13.37,11.26,13.37,25.16S332.92,207.77,325.54,207.77ZM426.91,350.25c-5.36,0-9.7-8.18-9.7-18.22s4.34-18.22,9.7-18.22,9.67,8.16,9.67,18.22S432.25,350.25,426.91,350.25Zm0-125.53c-5.36,0-9.7-8.15-9.7-18.21s4.34-18.22,9.7-18.22,9.67,8.16,9.67,18.22S432.25,224.72,426.91,224.72Z" transform="translate(-100.34 -123.07)"/><path class="a" d="M216.76,182.62c0,13.89,6,25.15,13.37,25.15s13.37-11.26,13.37-25.15-6-25.16-13.37-25.16S216.76,168.73,216.76,182.62Z" transform="translate(-100.34 -123.07)"/><path class="a" d="M216.76,355.91c0,13.88,6,25.16,13.37,25.16s13.37-11.28,13.37-25.16-6-25.15-13.37-25.15S216.76,342,216.76,355.91Z" transform="translate(-100.34 -123.07)"/></svg>