<svg xmlns="http://www.w3.org/2000/svg" viewBox="0 0 755.90668 755.90668" height="755.907" width="755.907">
  <defs>
    <clipPath id="a">
      <path d="M0 566.93h566.93V0H0z"/>
    </clipPath>
  </defs>
  <path d="M0 755.907h755.907V0H0z" fill="#fff"/>
  <g clip-path="url(#a)" transform="matrix(1.33333 0 0 -1.33333 0 755.907)">
    <path d="M198.166 274.41c5.53 0 9.145 3.73 9.145 8.96 0 5.157-3.613 8.96-9.144 8.96h-5.195v-17.92zm-9.825 22.134h9.826c8.28 0 14-5.683 14-13.174 0-7.414-5.72-13.175-14-13.175h-9.825zM238.72 280.658l-4.553 10.542-4.513-10.542zm-6.62 16.075h4.29l11.59-26.538h-4.89l-2.674 6.362h-12.46l-2.71-6.362h-4.74zM279.2 283.37c0 5.12-3.724 9.373-8.958 9.373-5.23 0-8.88-4.18-8.88-9.372 0-5.12 3.725-9.372 8.956-9.372 5.233 0 8.882 4.177 8.882 9.373m-22.694 0c0 7.416 5.718 13.625 13.812 13.625s13.74-6.133 13.74-13.624c0-7.414-5.725-13.624-13.816-13.624-8.092 0-13.736 6.135-13.736 13.625" fill="#271d2c"/>
    <path d="M300.25 283.37c0 7.492 5.608 13.625 13.59 13.625 4.853 0 7.79-1.69 10.312-4.102l-2.973-3.424c-2.11 1.955-4.367 3.273-7.377 3.273-5.044 0-8.696-4.14-8.696-9.372 0-5.157 3.652-9.372 8.696-9.372 3.236 0 5.307 1.316 7.563 3.423l2.973-3.008c-2.747-2.862-5.757-4.666-10.692-4.666-7.673 0-13.397 5.984-13.397 13.625M351.946 280.658l-4.554 10.542-4.515-10.542zm-6.626 16.075h4.29l11.597-26.538h-4.898l-2.673 6.362h-12.455l-2.71-6.362h-4.742zM370.333 274.035l2.79 3.313c2.52-2.183 5.038-3.427 8.317-3.427 2.857 0 4.664 1.32 4.664 3.39 0 1.883-1.053 2.9-5.945 4.065-5.61 1.318-8.77 2.973-8.77 7.904 0 4.517 3.762 7.64 8.997 7.64 3.837 0 6.883-1.166 9.555-3.312l-2.482-3.5c-2.37 1.77-4.744 2.71-7.153 2.71-2.71 0-4.29-1.393-4.29-3.2 0-2.032 1.206-2.936 6.252-4.142 5.57-1.355 8.462-3.347 8.462-7.792 0-4.927-3.874-7.863-9.408-7.863-4.027 0-7.827 1.393-10.99 4.215M403.248 296.544h4.63v-26.35h-4.63zM421.7 296.544h4.29l14.115-18.215v18.214h4.554v-26.35h-3.875l-14.53 18.747v-18.745h-4.556zM479.756 283.37c0 5.12-3.726 9.373-8.953 9.373-5.236 0-8.882-4.18-8.882-9.372 0-5.12 3.72-9.372 8.955-9.372 5.235 0 8.88 4.177 8.88 9.373m-22.696 0c0 7.416 5.724 13.625 13.815 13.625 8.09 0 13.736-6.133 13.736-13.624 0-7.414-5.718-13.624-13.807-13.624-8.093 0-13.744 6.135-13.744 13.625" fill="#ed9829"/>
    <path d="M82.318 297.38c0-2.172.934-3.93 2.086-3.93 1.156 0 2.09 1.758 2.09 3.93 0 2.168-.934 3.928-2.09 3.928-1.152 0-2.086-1.76-2.086-3.93M82.318 270.305c0-2.165.934-3.93 2.086-3.93 1.156 0 2.09 1.765 2.09 3.93 0 2.17-.934 3.93-2.09 3.93-1.152 0-2.086-1.76-2.086-3.93M93.795 284.82c0-2.55 1.1-4.615 2.456-4.615 1.355 0 2.452 2.066 2.452 4.615 0 2.547-1.097 4.615-2.45 4.615-1.356 0-2.457-2.068-2.457-4.615M152.758 293.45c-1.156 0-2.09 1.76-2.09 3.93s.934 3.93 2.09 3.93c1.152 0 2.087-1.76 2.087-3.93s-.935-3.93-2.087-3.93m0-27.075c-1.156 0-2.09 1.765-2.09 3.93 0 2.17.934 3.93 2.09 3.93 1.152 0 2.087-1.76 2.087-3.93 0-2.165-.935-3.93-2.087-3.93m-21.864 30.734c-1.593 0-2.888 2.427-2.888 5.423 0 2.997 1.295 5.427 2.888 5.427 1.59 0 2.885-2.43 2.885-5.427 0-2.996-1.295-5.424-2.886-5.424m0-37.384c-1.593 0-2.888 2.433-2.888 5.428 0 2.994 1.295 5.423 2.888 5.423 1.59 0 2.885-2.43 2.885-5.423 0-2.995-1.295-5.428-2.886-5.428m23.95 47.795l-33.252 7.858c-1.516 0-2.748-1.304-2.748-2.912v-57.38c0-.012 0-1.244-.794-2.047-.77-.777-1.956-.895-1.956-.895s1.373-.774 2.75-.553c2.316.38 6.484 1.434 6.484 1.434l-.054.016 29.237 6.908c3.09.702 4.613 2.402 4.613 5.204v37.812c0 2.667-1.192 3.87-4.278 4.555M107.43 302.532c0-2.995 1.29-5.424 2.885-5.424 1.594 0 2.884 2.43 2.884 5.424 0 2.997-1.29 5.427-2.885 5.427-1.594 0-2.885-2.43-2.885-5.428M107.43 265.153c0-2.994 1.29-5.428 2.885-5.428 1.594 0 2.884 2.434 2.884 5.428 0 2.994-1.29 5.424-2.885 5.424-1.594 0-2.885-2.43-2.885-5.424M294.418 272.643c0 1.353-1.096 2.447-2.447 2.447-1.353 0-2.448-1.094-2.448-2.447s1.095-2.447 2.45-2.447c1.35 0 2.446 1.094 2.446 2.447" fill="#271d2c"/>
  </g>
</svg>
