<?xml version="1.0" standalone="no"?>
<!DOCTYPE svg PUBLIC "-//W3C//DTD SVG 20010904//EN"
 "http://www.w3.org/TR/2001/REC-SVG-20010904/DTD/svg10.dtd">
<svg version="1.0" xmlns="http://www.w3.org/2000/svg"
 width="712.000000pt" height="712.000000pt" viewBox="0 0 712.000000 712.000000"
 preserveAspectRatio="xMidYMid meet">
<metadata>
Created by potrace 1.11, written by Peter Selinger 2001-2013
</metadata>
<g transform="translate(0.000000,712.000000) scale(0.100000,-0.100000)"
fill="#000000" stroke="none">
<path d="M3564 6507 c-31 -10 -91 -51 -112 -77 -7 -8 -24 -37 -39 -65 l-27
-50 -1 -2725 c-1 -2725 -1 -2725 -22 -2770 -37 -81 -96 -131 -188 -156 l-40
-11 30 -13 c102 -42 220 -48 323 -16 9 3 33 8 52 11 19 2 67 12 105 21 39 9
79 18 90 19 11 2 20 4 20 5 0 1 7 3 15 5 9 1 108 26 220 54 201 50 440 107
490 117 14 2 39 9 55 14 17 4 66 16 110 26 127 28 339 78 380 90 9 3 26 6 80
18 11 3 61 14 110 26 50 12 97 23 105 25 8 2 47 11 85 20 39 9 77 18 85 20 8
2 56 13 105 25 50 12 101 24 114 26 14 3 28 7 31 9 4 2 22 7 41 10 19 3 70 15
114 26 44 12 91 23 105 25 25 5 281 66 355 85 22 5 56 13 75 16 19 3 43 10 53
15 10 5 21 7 24 4 4 -3 12 -1 20 5 7 6 13 9 13 6 0 -3 20 0 45 7 25 8 45 12
45 10 0 -2 18 3 40 11 22 8 40 12 40 10 0 -12 166 58 215 90 100 67 153 144
183 270 3 11 7 848 8 1860 3 1629 2 1847 -12 1899 -28 108 -90 177 -203 229
-36 16 -72 31 -80 33 -9 2 -43 11 -76 19 -33 9 -69 18 -80 21 -11 3 -31 7 -45
10 -14 3 -43 10 -65 16 -22 5 -51 12 -65 15 -14 2 -59 13 -100 23 -41 10 -86
21 -100 24 -30 7 -158 36 -182 42 -10 2 -26 6 -35 8 -10 3 -67 17 -127 31
-104 26 -119 29 -167 40 -11 2 -28 6 -37 9 -9 3 -28 8 -42 10 -14 3 -63 15
-110 26 -47 11 -105 25 -130 30 -25 6 -55 13 -68 15 -12 3 -98 23 -190 45 -92
23 -194 47 -227 54 -220 51 -292 69 -305 73 -8 3 -24 7 -36 8 -11 2 -40 9 -65
15 -24 7 -51 13 -59 15 -8 2 -55 13 -105 25 -49 12 -101 24 -115 27 -14 2 -59
13 -100 23 -41 10 -86 21 -100 24 -14 3 -45 10 -70 16 -25 6 -56 13 -70 16
-14 3 -43 10 -65 16 -22 5 -47 12 -55 13 -8 2 -54 13 -102 24 -92 22 -117 23
-164 8z m1009 -693 c71 -36 130 -127 168 -259 34 -120 33 -349 -3 -465 -21
-67 -67 -158 -97 -193 -76 -86 -196 -92 -259 -13 -11 14 -22 22 -26 19 -3 -3
-6 -1 -6 5 0 6 -11 28 -25 48 -47 70 -88 241 -88 369 0 180 53 350 137 444 28
31 93 61 134 61 18 0 47 -7 65 -16z m2041 -638 c55 -52 87 -128 102 -241 3
-27 8 -52 10 -54 2 -2 -1 -10 -7 -18 -6 -7 -7 -13 -2 -13 10 0 9 -26 -2 -100
-20 -135 -92 -248 -168 -261 -38 -6 -95 19 -117 51 -8 13 -20 28 -27 35 -16
16 -49 118 -58 175 -9 52 -8 159 0 204 10 55 40 146 47 146 5 0 8 7 8 15 0 21
76 93 103 97 44 6 77 -5 111 -36z m7 -2518 c36 -36 73 -114 86 -178 21 -111
21 -170 1 -267 -24 -118 -66 -190 -128 -223 -33 -17 -84 -15 -116 6 -31 21
-88 108 -98 149 -17 74 -32 179 -30 208 16 169 42 243 104 306 58 57 122 57
181 -1z m-2058 -302 c2 2 27 -17 54 -43 69 -65 118 -168 140 -293 20 -111 4
-365 -26 -415 -3 -5 -7 -19 -8 -30 -6 -32 -64 -128 -97 -159 -36 -33 -106 -67
-120 -59 -5 4 -19 7 -30 8 -30 2 -77 29 -103 59 -117 135 -164 383 -117 621 3
17 7 35 8 40 8 42 61 156 86 185 16 19 30 37 30 40 0 10 63 43 94 50 17 4 43
3 58 -1 14 -4 28 -5 31 -3z"/>
<path d="M2525 5814 c-16 -9 -45 -33 -64 -53 -35 -37 -91 -143 -91 -172 0 -9
-3 -19 -7 -23 -4 -3 -8 -14 -10 -24 -2 -9 -6 -35 -11 -57 -9 -52 -8 -278 2
-330 37 -187 139 -324 243 -328 116 -3 229 142 259 333 3 19 7 46 10 60 6 35
5 176 -1 229 -21 158 -89 298 -172 353 -46 30 -115 35 -158 12z"/>
<path d="M149 5203 c-45 -18 -92 -82 -120 -163 -33 -95 -33 -275 0 -377 26
-79 76 -148 123 -167 123 -52 244 146 231 381 -5 101 -6 109 -26 168 -32 91
-95 163 -149 169 -14 2 -40 -3 -59 -11z"/>
<path d="M1259 4106 c-46 -14 -80 -42 -111 -91 -122 -193 -105 -552 32 -698
124 -132 269 -32 324 225 12 56 13 238 2 288 -14 62 -29 111 -37 116 -5 3 -9
12 -9 20 0 22 -56 95 -93 119 -44 29 -66 34 -108 21z"/>
<path d="M166 2699 c-67 -19 -127 -109 -154 -234 -8 -37 -8 -197 0 -245 16
-94 63 -185 114 -219 125 -86 252 74 258 324 6 226 -100 406 -218 374z"/>
<path d="M2546 2355 c-90 -31 -164 -149 -200 -320 -20 -91 -15 -306 8 -390 43
-154 120 -258 209 -280 43 -11 52 -10 95 11 60 29 95 69 137 159 53 110 81
316 61 436 -26 151 -50 221 -105 297 -58 79 -134 111 -205 87z"/>
</g>
</svg>
